C:\Users\israe\Dropbox\PhDWork\ExperimentalData\subject7\145\P7S145W14_filtered35.mot
nRows=16
nColumns=28

name C:\Users\israe\Dropbox\PhDWork\ExperimentalData\subject7\145\P7S145W14_filtered35.mot
datacolumns 28
datarows 16
range 0.5050000000 0.5200000000
endheader
time	ground_force_1_vx	ground_force_1_vy	ground_force_1_vz	ground_force_1_px	ground_force_1_py	ground_force_1_pz	ground_moment_1_mx	ground_moment_1_my	ground_moment_1_mz	ground_force_2_vx	ground_force_2_vy	ground_force_2_vz	ground_force_2_px	ground_force_2_py	ground_force_2_pz	ground_moment_2_mx	ground_moment_2_my	ground_moment_2_mz	ground_force_3_vx	ground_force_3_vy	ground_force_3_vz	ground_force_3_px	ground_force_3_py	ground_force_3_pz	ground_moment_3_mx	ground_moment_3_my	ground_moment_3_mz
        0.5050000000	        0.0000000000	        0.0000000000	        0.0000000000	        0.1988394910	        0.0000558755	       -0.3004071320	       -0.0000000000	        0.0000000000	        0.0000000000	        0.0000000014	        0.0000000000	       -0.0000000005	        0.2029003487	       -0.0000795827	        0.4543649445	        0.0000000064	        0.0000000006	        0.0000000006	       -9.0387108581	      562.9510710254	      -28.9110734996	        0.2076431971	        0.0000770316	        1.3583900146	      -27.4220419620	        2.8157702472	       11.0757063717	
        0.5060000000	        0.0000000000	        0.0000000000	        0.0000000000	        0.1988394910	        0.0000558755	       -0.3004071320	       -0.0000000000	        0.0000000000	        0.0000000000	        0.0000000013	        0.0000000000	       -0.0000000001	        0.2029003487	       -0.0000795827	        0.4543649445	        0.0000000070	        0.0000000006	        0.0000000007	       -9.2888558484	      569.4779271433	      -30.0296227873	        0.2076431971	        0.0000770316	        1.3583900146	      -27.3817874405	        2.8190372364	       11.2245775481	
        0.5070000000	        0.0000000000	        0.0000000000	        0.0000000000	        0.1988394910	        0.0000558755	       -0.3004071320	       -0.0000000000	        0.0000000000	        0.0000000000	        0.0000000011	        0.0000000000	        0.0000000005	        0.2029003487	       -0.0000795827	        0.4543649445	        0.0000000073	        0.0000000005	        0.0000000007	       -9.5111238145	      576.0907120512	      -31.2206899490	        0.2076431971	        0.0000770316	        1.3583900146	      -27.3567692021	        2.8307531568	       11.3713768051	
        0.5080000000	        0.0000000000	        0.0000000000	        0.0000000000	        0.1988394910	        0.0000558755	       -0.3004071320	       -0.0000000000	        0.0000000000	        0.0000000000	        0.0000000008	        0.0000000000	        0.0000000013	        0.2029003487	       -0.0000795827	        0.4543649445	        0.0000000069	        0.0000000003	        0.0000000007	       -9.7118636358	      582.7873095248	      -32.4802856910	        0.2076431971	        0.0000770316	        1.3583900146	      -27.3467642012	        2.8500195725	       11.5164077487	
        0.5090000000	        0.0000000000	        0.0000000000	        0.0000000000	        0.1988394910	        0.0000558755	       -0.3004071320	       -0.0000000000	        0.0000000000	        0.0000000000	        0.0000000002	        0.0000000000	        0.0000000024	        0.2029003487	       -0.0000795827	        0.4543649445	        0.0000000058	        0.0000000000	        0.0000000006	       -9.8975212920	      589.5663843033	      -33.8038817664	        0.2076431971	        0.0000770316	        1.3583900146	      -27.3518034533	        2.8759694040	       11.6600074141	
        0.5100000000	        0.0000000000	        0.0000000000	        0.0000000000	        0.1988394910	        0.0000558755	       -0.3004071320	       -0.0000000000	        0.0000000000	        0.0000000000	       -0.0000000008	        0.0000000000	        0.0000000038	        0.2029003487	       -0.0000795827	        0.4543649445	        0.0000000036	       -0.0000000004	        0.0000000003	      -10.0739996855	      596.4270276376	      -35.1874619008	        0.2076431971	        0.0000770316	        1.3583900146	      -27.3721314848	        2.9077684097	       11.8025430264	
        0.5110000000	        0.0000000000	        0.0000000000	        0.0000000000	        0.1988394910	        0.0000558755	       -0.3004071320	       -0.0000000000	        0.0000000000	        0.0000000000	       -0.0000000021	        0.0000000000	        0.0000000054	        0.2029003487	       -0.0000795827	        0.4543649445	        0.0000000000	       -0.0000000010	       -0.0000000000	      -10.2454929999	      603.3666292420	      -36.6286165084	        0.2076431971	        0.0000770316	        1.3583900146	      -27.4080615673	        2.9447009339	       11.9445842194	
        0.5120000000	        0.0000000000	        0.0000000000	        0.0000000000	        0.1988394910	        0.0000558755	       -0.3004071320	       -0.0000000000	        0.0000000000	        0.0000000000	       -0.0000000038	        0.0000000168	        0.0000000073	        0.2029003487	       -0.0000795827	        0.4543649445	       -0.0000000052	       -0.0000000018	       -0.0000000006	      -10.4136698890	      610.3790592922	      -38.1268047154	        0.2076431971	        0.0000770316	        1.3583900146	      -27.4597258899	        2.9862486053	       12.0870163610	
        0.5130000000	        0.0000000000	        0.0000000000	        0.0000000000	        0.1988394910	        0.0000558755	       -0.3004071320	       -0.0000000000	        0.0000000000	        0.0000000000	       -0.0000000060	        0.0000000416	        0.0000000095	        0.2029003487	       -0.0000795827	        0.4543649445	       -0.0000000125	       -0.0000000027	       -0.0000000013	      -10.5783160192	      617.4549934522	      -39.6825748410	        0.2076431971	        0.0000770316	        1.3583900146	      -27.5267852098	        3.0320018301	       12.2308339991	
        0.5140000000	        0.0000000000	        0.0000000000	        0.0000000000	        0.1988394910	        0.0000558755	       -0.3004071320	        0.0000000000	        0.0000000000	       -0.0000000000	       -0.0000000086	        0.0000000743	        0.0000000118	        0.2029003487	       -0.0000795827	        0.4543649445	       -0.0000000221	       -0.0000000039	       -0.0000000022	      -10.7388754351	      624.5827322446	      -41.2963566047	        0.2076431971	        0.0000770316	        1.3583900146	      -27.6083757816	        3.0815510961	       12.3767256509	
        0.5150000000	        0.0000000000	        0.0000000000	        0.0000000000	        0.1988394910	        0.0000558755	       -0.3004071320	        0.0000000000	        0.0000000000	       -0.0000000000	       -0.0000000117	        0.0000001156	        0.0000000142	        0.2029003487	       -0.0000795827	        0.4543649445	       -0.0000000341	       -0.0000000053	       -0.0000000034	      -10.8956562504	      631.7491759381	      -42.9673713808	        0.2076431971	        0.0000770316	        1.3583900146	      -27.7032954983	        3.1344704911	       12.5247801470	
        0.5160000000	        0.0000000000	        0.0000000000	        0.0000000000	        0.1988394910	        0.0000558755	       -0.3004071320	        0.0000000000	        0.0000000000	       -0.0000000000	       -0.0000000153	        0.0000001658	        0.0000000163	        0.2029003487	       -0.0000795827	        0.4543649445	       -0.0000000487	       -0.0000000068	       -0.0000000049	      -11.0503107137	      638.9416654568	      -44.6930481085	        0.2076431971	        0.0000770316	        1.3583900146	      -27.8101557825	        3.1903483527	       12.6746335033	
        0.5170000000	       -0.0000000000	        0.0000000000	        0.0000000000	        0.1988394910	        0.0000558755	       -0.3004071320	        0.0000000000	       -0.0000000000	       -0.0000000000	       -0.0000000190	        0.0000002245	        0.0000000179	        0.2029003487	       -0.0000795827	        0.4543649445	       -0.0000000657	       -0.0000000085	       -0.0000000066	      -11.2057190446	      646.1483019017	      -46.4691717108	        0.2076431971	        0.0000770316	        1.3583900146	      -27.9274403775	        3.2488603704	       12.8259652006	
        0.5180000000	       -0.0000000000	        0.0000000000	       -0.0000000000	        0.1988394910	        0.0000558755	       -0.3004071320	        0.0000000000	       -0.0000000000	       -0.0000000000	       -0.0000000228	        0.0000002902	        0.0000000186	        0.2029003487	       -0.0000795827	        0.4543649445	       -0.0000000848	       -0.0000000101	       -0.0000000084	      -11.3652363347	      653.3559125993	      -48.2901661474	        0.2076431971	        0.0000770316	        1.3583900146	      -28.0535118264	        3.3097975492	       12.9787005511	
        0.5190000000	       -0.0000000000	        0.0000000000	       -0.0000000000	        0.1988394910	        0.0000558755	       -0.3004071320	        0.0000000000	       -0.0000000000	       -0.0000000000	       -0.0000000263	        0.0000003602	        0.0000000180	        0.2029003487	       -0.0000795827	        0.4543649445	       -0.0000001050	       -0.0000000116	       -0.0000000104	      -11.5313157488	      660.5497485232	      -50.1494141572	        0.2076431971	        0.0000770316	        1.3583900146	      -28.1865745510	        3.3729549576	       13.1327015718	
        0.5200000000	       -0.0000000000	        0.0000000000	       -0.0000000000	        0.1988394910	        0.0000558755	       -0.3004071320	        0.0000000000	       -0.0000000000	       -0.0000000000	       -0.0000000291	        0.0000004301	        0.0000000154	        0.2029003487	       -0.0000795827	        0.4543649445	       -0.0000001250	       -0.0000000127	       -0.0000000124	      -11.7043985192	      667.7165428753	      -52.0400011840	        0.2076431971	        0.0000770316	        1.3583900146	      -28.3247019610	        3.4380133818	       13.2874499244	
